<svg xmlns="http://www.w3.org/2000/svg" viewBox="0 0 48 48" fill="currentColor">
<path d="M 24 6 C 23.048235 6 22.141037 6.095179 21.275391 6.2265625 A 1.50015 1.50015 0 1 0 21.724609 9.1914062 C 22.492963 9.0747896 23.247765 9 24 9 C 32.3024 9 39 15.6976 39 24 C 39 27.934257 37.472499 31.480462 35 34.150391 L 35 30.5 A 1.50015 1.50015 0 0 0 33.476562 28.978516 A 1.50015 1.50015 0 0 0 32 30.5 L 32 37.5 A 1.50015 1.50015 0 0 0 33.5 39 L 40.5 39 A 1.50015 1.50015 0 1 0 40.5 36 L 37.394531 36 C 40.25285 32.815876 42 28.609324 42 24 C 42 14.0764 33.9236 6 24 6 z M 7.5 9 A 1.50015 1.50015 0 1 0 7.5 12 L 10.605469 12 C 7.7471496 15.184124 6 19.390676 6 24 C 6 33.9236 14.0764 42 24 42 C 24.951765 42 25.858963 41.90482 26.724609 41.773438 A 1.50015 1.50015 0 1 0 26.275391 38.808594 C 25.507037 38.925211 24.752235 39 24 39 C 15.6976 39 9 32.3024 9 24 C 9 20.065743 10.527501 16.519538 13 13.849609 L 13 17.5 A 1.50015 1.50015 0 1 0 16 17.5 L 16 10.5 A 1.50015 1.50015 0 0 0 14.5 9 L 7.5 9 z M 24 18 C 22.125 18 20.528815 18.757133 19.503906 19.910156 C 18.478997 21.063179 18 22.541667 18 24 C 18 25.458333 18.478997 26.936821 19.503906 28.089844 C 20.528815 29.242867 22.125 30 24 30 C 25.875 30 27.471185 29.242867 28.496094 28.089844 C 29.521003 26.936821 30 25.458333 30 24 C 30 22.541667 29.521003 21.063179 28.496094 19.910156 C 27.471185 18.757133 25.875 18 24 18 z M 24 21 C 25.124999 21 25.778816 21.367867 26.253906 21.902344 C 26.728997 22.436821 27 23.208333 27 24 C 27 24.791667 26.728997 25.563179 26.253906 26.097656 C 25.778816 26.632133 25.124999 27 24 27 C 22.875001 27 22.221184 26.632133 21.746094 26.097656 C 21.271003 25.563179 21 24.791667 21 24 C 21 23.208333 21.271003 22.436821 21.746094 21.902344 C 22.221184 21.367867 22.875001 21 24 21 z"></path>
</svg>
