<svg xmlns="http://www.w3.org/2000/svg" viewBox="0 0 48 48" fill="currentColor">
<path d="M 29.76,34.9 29.3,34.64 A 3,3 0 0 1 27.8,32 c 0,-0.61 0,-1.29 0,-1.9 a 3,3 0 0 1 1.5,-2.69 l 0.39,-0.22 a 2,2 0 0 0 0.8,-2.77 l -1,-1.74 a 2,2 0 0 0 -2.73,-0.73 l -0.32,0.19 A 3,3 0 0 1 23.26,22 10.29,10.29 0 0 0 21.68,21.09 3,3 0 0 1 20,18.37 V 18 a 2,2 0 0 0 -2,-2 h -2 a 2,2 0 0 0 -2,2 v 0.37 a 3,3 0 0 1 -1.68,2.69 10.29,10.29 0 0 0 -1.58,0.91 3,3 0 0 1 -3.18,0.12 L 7.25,21.91 a 2,2 0 0 0 -2.74,0.72 l -1,1.74 a 2,2 0 0 0 0.73,2.73 l 0.46,0.26 a 3,3 0 0 1 1.5,2.69 c 0,0.61 0,1.29 0,1.9 a 3,3 0 0 1 -1.5,2.69 l -0.39,0.22 a 2,2 0 0 0 -0.8,2.77 l 1,1.74 a 2,2 0 0 0 2.73,0.73 l 0.32,-0.19 a 3,3 0 0 1 3.18,0.12 10.29,10.29 0 0 0 1.58,0.91 3,3 0 0 1 1.68,2.69 V 44 a 2,2 0 0 0 2,2 h 2 a 2,2 0 0 0 2,-2 v -0.37 a 3,3 0 0 1 1.68,-2.69 10.29,10.29 0 0 0 1.58,-0.94 3,3 0 0 1 3.18,-0.12 l 0.31,0.18 a 2,2 0 0 0 2.74,-0.72 l 1,-1.74 A 2,2 0 0 0 29.76,34.9 Z M 17,36 a 5,5 0 1 1 5,-5 5,5 0 0 1 -5,5 z m 26.93,-25.48 0.18,-0.1 A 2,2 0 0 0 44.84,7.68 L 44.34,6.82 A 2,2 0 0 0 41.61,6.08 l -0.13,0.08 a 2,2 0 0 1 -2.07,0 L 39.08,5.97 A 2,2 0 0 1 38,4.15 V 4 A 2,2 0 0 0 36,2 h -1 a 2,2 0 0 0 -2,2 v 0.15 a 2,2 0 0 1 -1.08,1.77 l -0.33,0.19 a 2,2 0 0 1 -2.07,0 L 29.39,6.03 a 2,2 0 0 0 -2.73,0.74 l -0.5,0.86 a 2,2 0 0 0 0.73,2.74 l 0.18,0.1 a 2,2 0 0 1 1,1.74 v 0.48 a 2,2 0 0 1 -1,1.74 l -0.18,0.1 a 2,2 0 0 0 -0.73,2.74 l 0.5,0.86 a 2,2 0 0 0 2.73,0.74 l 0.13,-0.08 a 2,2 0 0 1 2.07,0.05 l 0.33,0.19 A 2,2 0 0 1 33,20.85 V 21 a 2,2 0 0 0 2,2 h 1 a 2,2 0 0 0 2,-2 v -0.15 a 2,2 0 0 1 1.08,-1.77 l 0.33,-0.19 a 2,2 0 0 1 2.07,-0.05 l 0.13,0.08 a 2,2 0 0 0 2.73,-0.74 l 0.5,-0.86 a 2,2 0 0 0 -0.73,-2.74 l -0.18,-0.1 a 2,2 0 0 1 -1,-1.74 v -0.48 a 2,2 0 0 1 1,-1.74 z M 35.5,15 A 2.5,2.5 0 1 1 38,12.5 2.5,2.5 0 0 1 35.5,15 Z"></path>
</svg>
