<svg xmlns="http://www.w3.org/2000/svg" viewBox="0 0 48 48" fill="currentColor">
<path d="M17.336 12h13.329l2.24-5.973c.173-.461.108-.977-.172-1.381C32.453 4.241 31.992 4 31.5 4h-3.762C26.93 2.795 25.557 2 24 2s-2.93.795-3.738 2H16.5c-.492 0-.953.241-1.232.646-.28.404-.345.92-.172 1.381L17.336 12zM32.81 15H15.19C11.04 18.7 4.73 25.85 5.06 34.88 5.25 39.99 9.42 44 14.56 44h18.88c5.14 0 9.31-4.01 9.5-9.12C43.27 25.85 36.96 18.7 32.81 15zM29.5 37h-11c-.1 0-.2-.01-.3-.03-.06-.01-.12-.04-.18-.06-.03-.01-.07-.01-.1-.03-.09-.04-.18-.08-.26-.14-.01-.01-.03-.02-.04-.03-.07-.05-.13-.1-.19-.16 0-.01-.01-.01-.01-.01-.01-.01-.01-.01-.01-.02-.13-.13-.23-.29-.3-.47-.01-.02-.01-.03-.02-.05C17.04 35.85 17 35.68 17 35.5c0-.01 0-.01 0-.02s.01-.02.01-.03c0-.19.04-.37.11-.54 0 0 0-.01.01-.01.07-.18.19-.34.33-.47 0-.01 0-.01 0-.01 1.61-1.55 2.08-2.52 2.12-3.42H18.5c-.83 0-1.5-.67-1.5-1.5 0-.83.67-1.5 1.5-1.5h.62c-.03-.24-.05-.49-.05-.76v-.39c0-3.21 2.61-5.82 5.82-5.82 2.56 0 4.85 1.71 5.58 4.16.24.79-.21 1.63-1.01 1.86-.79.24-1.63-.21-1.86-1.01-.35-1.18-1.47-2.01-2.71-2.01-1.55 0-2.82 1.26-2.82 2.82v.39c0 .26.03.51.07.76h3.36c.83 0 1.5.67 1.5 1.5 0 .83-.67 1.5-1.5 1.5h-2.92c-.01.93-.25 1.91-.91 3h7.83c.83 0 1.5.67 1.5 1.5C31 36.33 30.33 37 29.5 37z"></path>
</svg>
