<svg xmlns="http://www.w3.org/2000/svg" viewBox="0 0 32 32">
<linearGradient id="RMgrPIoUMy9nRCOCZpJhpa_xAETqIu0SJo3_gr1" x1="14.025" x2="18.975" y1="2.025" y2="6.975" gradientUnits="userSpaceOnUse"><stop offset="0" stop-color="#2680ff" stop-opacity=".95"></stop><stop offset="1" stop-color="#2680ff" stop-opacity=".5"></stop></linearGradient><path fill="url(#RMgrPIoUMy9nRCOCZpJhpa_xAETqIu0SJo3_gr1)" d="M16.5,1C14.567,1,13,2.567,13,4.5C13,6.433,14.567,8,16.5,8C18.433,8,20,6.433,20,4.5	C20,2.567,18.433,1,16.5,1z"></path><linearGradient id="RMgrPIoUMy9nRCOCZpJhpb_xAETqIu0SJo3_gr2" x1="14.025" x2="18.975" y1="2.025" y2="6.975" gradientUnits="userSpaceOnUse"><stop offset="0" stop-color="#fff" stop-opacity=".6"></stop><stop offset=".493" stop-color="#fff" stop-opacity="0"></stop><stop offset=".997" stop-color="#fff" stop-opacity=".3"></stop></linearGradient><path fill="url(#RMgrPIoUMy9nRCOCZpJhpb_xAETqIu0SJo3_gr2)" d="M16.5,1.5c1.654,0,3,1.346,3,3s-1.346,3-3,3s-3-1.346-3-3S14.846,1.5,16.5,1.5 M16.5,1	C14.567,1,13,2.567,13,4.5C13,6.433,14.567,8,16.5,8S20,6.433,20,4.5C20,2.567,18.433,1,16.5,1L16.5,1z"></path><linearGradient id="RMgrPIoUMy9nRCOCZpJhpc_xAETqIu0SJo3_gr3" x1="8.439" x2="23.061" y1="13.439" y2="28.061" gradientUnits="userSpaceOnUse"><stop offset="0" stop-color="#2680ff" stop-opacity=".95"></stop><stop offset="1" stop-color="#2680ff" stop-opacity=".5"></stop></linearGradient><path fill="url(#RMgrPIoUMy9nRCOCZpJhpc_xAETqIu0SJo3_gr3)" d="M19,26V11.5c0-0.828-0.672-1.5-1.5-1.5h-5c-0.828,0-1.5,0.672-1.5,1.5v1	c0,0.828,0.672,1.5,1.5,1.5H14v12h-1.5c-0.828,0-1.5,0.672-1.5,1.5v1c0,0.828,0.672,1.5,1.5,1.5h8c0.828,0,1.5-0.672,1.5-1.5v-1	c0-0.828-0.672-1.5-1.5-1.5H19z"></path><linearGradient id="RMgrPIoUMy9nRCOCZpJhpd_xAETqIu0SJo3_gr4" x1="8.439" x2="23.061" y1="13.439" y2="28.061" gradientUnits="userSpaceOnUse"><stop offset="0" stop-color="#fff" stop-opacity=".6"></stop><stop offset=".493" stop-color="#fff" stop-opacity="0"></stop><stop offset=".997" stop-color="#fff" stop-opacity=".3"></stop></linearGradient><path fill="url(#RMgrPIoUMy9nRCOCZpJhpd_xAETqIu0SJo3_gr4)" d="M17.5,10.5c0.551,0,1,0.449,1,1V26v0.5H19h1.5c0.551,0,1,0.449,1,1v1c0,0.551-0.449,1-1,1h-8	c-0.551,0-1-0.449-1-1v-1c0-0.551,0.449-1,1-1H14h0.5V26V14v-0.5H14h-1.5c-0.551,0-1-0.449-1-1v-1c0-0.551,0.449-1,1-1H17.5 M17.5,10h-5c-0.828,0-1.5,0.672-1.5,1.5v1c0,0.828,0.672,1.5,1.5,1.5H14v12h-1.5c-0.828,0-1.5,0.672-1.5,1.5v1	c0,0.828,0.672,1.5,1.5,1.5h8c0.828,0,1.5-0.672,1.5-1.5v-1c0-0.828-0.672-1.5-1.5-1.5H19V11.5C19,10.672,18.328,10,17.5,10L17.5,10	z"></path>
</svg>
